<svg xmlns="http://www.w3.org/2000/svg" width="20" height="20" viewBox="0 0 20 20"><path d="M7.077,9.231H2.154A2.1,2.1,0,0,1,0,7.077V2.154A2.1,2.1,0,0,1,2.154,0H7.077A2.1,2.1,0,0,1,9.231,2.154V7.077A2.1,2.1,0,0,1,7.077,9.231Zm2.154,8.615V12.923a2.1,2.1,0,0,0-2.154-2.154H2.154A2.1,2.1,0,0,0,0,12.923v4.923A2.1,2.1,0,0,0,2.154,20H7.077A2.1,2.1,0,0,0,9.231,17.846Zm8.615-8.615H12.923a2.1,2.1,0,0,1-2.154-2.154V2.154A2.1,2.1,0,0,1,12.923,0h4.923A2.1,2.1,0,0,1,20,2.154V7.077A2.1,2.1,0,0,1,17.846,9.231ZM20,17.846V12.923a2.1,2.1,0,0,0-2.154-2.154H12.923a2.1,2.1,0,0,0-2.154,2.154v4.923A2.1,2.1,0,0,0,12.923,20h4.923A2.1,2.1,0,0,0,20,17.846Z" fill="#707070"/></svg>