<svg xmlns="http://www.w3.org/2000/svg" width="48" height="48" viewBox="0 0 48 48"><g fill="#fff" stroke="#1ab9c5" stroke-width="1"><circle cx="24" cy="24" r="24" stroke="none"/><circle cx="24" cy="24" r="23.5" fill="none"/></g><path d="M15.745,6.986a.883.883,0,0,1-.875.878h-.875l.019,4.38a2.006,2.006,0,0,1-.014.221v.44A1.093,1.093,0,0,1,12.906,14h-.437c-.03,0-.06,0-.09,0s-.077,0-.115,0H10.719a1.093,1.093,0,0,1-1.094-1.094V10.5a.874.874,0,0,0-.875-.875H7a.874.874,0,0,0-.875.875v2.406A1.093,1.093,0,0,1,5.031,14H3.5c-.041,0-.082,0-.123-.005s-.066.005-.1.005H2.844A1.093,1.093,0,0,1,1.75,12.906V9.844a.716.716,0,0,1,0-.077v-1.9H.875A.864.864,0,0,1,0,6.986.889.889,0,0,1,.273,6.33L7.284.219A.789.789,0,0,1,7.886,0,.908.908,0,0,1,8.46.191L15.444,6.33A.749.749,0,0,1,15.745,6.986Z" transform="translate(16 17)" fill="#1ab9c5"/></svg>