<svg xmlns="http://www.w3.org/2000/svg" width="23" height="20" viewBox="0 0 23 20"><path d="M4.6,6H1.4A1.367,1.367,0,0,1,0,4.6V1.4A1.367,1.367,0,0,1,1.4,0H4.6A1.367,1.367,0,0,1,6,1.4V4.6A1.367,1.367,0,0,1,4.6,6ZM6,11.6V8.4A1.367,1.367,0,0,0,4.6,7H1.4A1.367,1.367,0,0,0,0,8.4v3.2A1.367,1.367,0,0,0,1.4,13H4.6A1.367,1.367,0,0,0,6,11.6Zm0,7V15.4A1.367,1.367,0,0,0,4.6,14H1.4A1.367,1.367,0,0,0,0,15.4v3.2A1.367,1.367,0,0,0,1.4,20H4.6A1.367,1.367,0,0,0,6,18.6ZM23,3h0a2.006,2.006,0,0,0-2-2H9A2.006,2.006,0,0,0,7,3H7A2.006,2.006,0,0,0,9,5H21A2.006,2.006,0,0,0,23,3Zm0,7h0a2.006,2.006,0,0,0-2-2H9a2.006,2.006,0,0,0-2,2H7a2.006,2.006,0,0,0,2,2H21A2.006,2.006,0,0,0,23,10Zm0,7h0a2.006,2.006,0,0,0-2-2H9a2.006,2.006,0,0,0-2,2H7a2.006,2.006,0,0,0,2,2H21A2.006,2.006,0,0,0,23,17Z" fill="#1ab9c5"/></svg>