<svg xmlns="http://www.w3.org/2000/svg" width="50" height="50" viewBox="0 0 50 50"><g fill="#ffe5ed" stroke="#f34d7e" stroke-width="1"><circle cx="25" cy="25" r="25" stroke="none"/><circle cx="25" cy="25" r="24.5" fill="none"/></g><path d="M20.01,27.254a10.8,10.8,0,0,1,0,16.762.9.9,0,0,1-1.136-1.4,9,9,0,0,0,0-13.969.9.9,0,1,1,1.136-1.4Zm-2.269,2.794a7.2,7.2,0,0,1,0,11.175.9.9,0,1,1-1.136-1.4,5.4,5.4,0,0,0,0-8.381.9.9,0,1,1,1.136-1.4Zm-2.269,2.794a3.6,3.6,0,0,1,0,5.587.9.9,0,0,1-1.136-1.4,1.8,1.8,0,0,0,0-2.794.9.9,0,0,1,1.136-1.4Zm-4.181-5.5A1.2,1.2,0,0,1,12,28.435v14.4a1.2,1.2,0,0,1-2,.9l-5.059-4.5H2.4a2.4,2.4,0,0,1-2.4-2.4v-2.4a2.4,2.4,0,0,1,2.4-2.4H4.943L10,27.539A1.2,1.2,0,0,1,11.291,27.34Z" transform="translate(13 -11.049)" fill="#f34d7e"/></svg>