<svg width="50" height="50" viewBox="0 0 50 50" fill="none" xmlns="http://www.w3.org/2000/svg">
<circle cx="25" cy="25" r="24.5" fill="#EEF8FF" stroke="#6AB8EE"/>
<path d="M33.01 16.2044C35.4437 18.1844 37 21.2032 37 24.5857C37 27.9682 35.4437 30.9907 33.01 32.9669C32.6237 33.2819 32.0575 33.2219 31.7425 32.8356C31.4275 32.4494 31.4875 31.8831 31.8737 31.5681C33.9062 29.9181 35.2 27.4057 35.2 24.5857C35.2 21.7657 33.9062 19.2532 31.8737 17.5994C31.4875 17.2844 31.4312 16.7182 31.7425 16.3319C32.0537 15.9457 32.6237 15.8894 33.01 16.2007V16.2044ZM30.7412 18.9981C32.3612 20.3181 33.4 22.3319 33.4 24.5857C33.4 26.8394 32.3612 28.8531 30.7412 30.1732C30.355 30.4881 29.7887 30.4281 29.4737 30.0419C29.1588 29.6557 29.2188 29.0894 29.605 28.7744C30.8237 27.7844 31.6 26.2769 31.6 24.5857C31.6 22.8944 30.8237 21.3869 29.605 20.3931C29.2187 20.0781 29.1625 19.5119 29.4737 19.1256C29.785 18.7394 30.355 18.6832 30.7412 18.9944V18.9981ZM28.4725 21.7919C29.2787 22.4519 29.8 23.4569 29.8 24.5857C29.8 25.7144 29.2787 26.7194 28.4725 27.3794C28.0862 27.6944 27.52 27.6344 27.205 27.2481C26.89 26.8619 26.95 26.2956 27.3362 25.9807C27.7412 25.6507 28 25.1482 28 24.5857C28 24.0232 27.7412 23.5207 27.3362 23.1869C26.95 22.8719 26.8937 22.3057 27.205 21.9194C27.5162 21.5332 28.0862 21.4769 28.4725 21.7882V21.7919ZM24.2912 16.2907C24.7225 16.4857 25 16.9131 25 17.3857V31.7856C25 32.2581 24.7225 32.6856 24.2912 32.8806C23.86 33.0757 23.3537 32.9969 23.0012 32.6819L17.9425 28.1856H15.4C14.0762 28.1856 13 27.1094 13 25.7857V23.3857C13 22.0619 14.0762 20.9857 15.4 20.9857H17.9425L23.0012 16.4894C23.3537 16.1744 23.86 16.0994 24.2912 16.2907Z" fill="#6AB8EE"/>
</svg>
