<?xml version="1.0" encoding="UTF-8"?><svg id="Layer_2" xmlns="http://www.w3.org/2000/svg" viewBox="0 0 23.06 30.9"><defs><style>.cls-1{fill:#fff;}.cls-2{fill:none;stroke:#fff;stroke-linecap:round;stroke-linejoin:round;stroke-width:1.8px;}</style></defs><g id="Layer_1-2"><g><path class="cls-2" d="M22.16,12.47v2.53c0,5.87-4.76,10.63-10.64,10.64h0c-5.87,0-10.62-4.77-10.62-10.64v-2.53"/><path class="cls-1" d="M17.94,14.56c.1,3.64-2.75,6.68-6.39,6.83h0c-3.65-.12-6.51-3.17-6.39-6.82,0,0,0,0,0,0V6.83C5.03,3.18,7.88,.13,11.52,0c0,0,.01,0,.02,0h0c3.65,.12,6.51,3.17,6.39,6.82,0,0,0,0,0,0v7.75h.01Z"/><line class="cls-2" x1="11.54" y1="25.82" x2="11.54" y2="29.45"/><line class="cls-2" x1="5.39" y1="30" x2="17.67" y2="30"/></g></g></svg>