<svg xmlns="http://www.w3.org/2000/svg" width="70" height="70" viewBox="0 0 70 70"><g transform="translate(-10.5 -10.5)"><circle cx="35" cy="35" r="35" transform="translate(10.5 10.5)" fill="#1ab9c5"/><g transform="translate(33.6 30.5)"><path d="M22.16,12.47V15A10.648,10.648,0,0,1,11.52,25.64h0A10.631,10.631,0,0,1,.9,15V12.47" fill="none" stroke="#fff" stroke-linecap="round" stroke-linejoin="round" stroke-width="1.8"/><path d="M17.94,14.56a6.66,6.66,0,0,1-6.39,6.83h0a6.606,6.606,0,0,1-6.39-6.82h0V6.83A6.6,6.6,0,0,1,11.52,0h.02a6.606,6.606,0,0,1,6.39,6.82h0v7.75h.01Z" fill="#fff"/><line y2="3.63" transform="translate(11.54 25.82)" fill="none" stroke="#fff" stroke-linecap="round" stroke-linejoin="round" stroke-width="1.8"/><line x2="12.28" transform="translate(5.39 30)" fill="none" stroke="#fff" stroke-linecap="round" stroke-linejoin="round" stroke-width="1.8"/></g></g></svg>