<svg xmlns="http://www.w3.org/2000/svg" width="53.55" height="46" viewBox="0 0 53.55 46"><path d="M22.557,45.363,1,40.824V4.79L22.557,9.329Z" transform="translate(0 -0.363)" fill="#e3513b" stroke="#223637" stroke-linecap="round" stroke-linejoin="round" stroke-width="2"/><path d="M34.17,45.363l21.557-4.539V4.79L34.17,9.329Z" transform="translate(-3.177 -0.363)" fill="#e3513b" stroke="#223637" stroke-linecap="round" stroke-linejoin="round" stroke-width="2"/><path d="M34.23,17.695V45.844H23.66V9.81H34.23v3.825" transform="translate(-2.17 -0.844)" fill="#ca6354" stroke="#223637" stroke-linecap="round" stroke-linejoin="round" stroke-width="2"/><path d="M27.075,45,4.18,37.034V1L23.621,4.979a4.169,4.169,0,0,1,3.454,3.988h0Z" transform="translate(-0.305)" fill="#fff" stroke="#223637" stroke-linecap="round" stroke-linejoin="round" stroke-width="2"/><path d="M44.186,2.682l-11.222,2.3A4.169,4.169,0,0,0,29.51,8.966h0V45l22.9-7.966V1l-3.843.787" transform="translate(-2.73)" fill="#fff" stroke="#223637" stroke-linecap="round" stroke-linejoin="round" stroke-width="2"/></svg>