<svg xmlns="http://www.w3.org/2000/svg" width="80" height="80" viewBox="0 0 80 80"><g transform="translate(-920 -332)"><circle cx="40" cy="40" r="40" transform="translate(920 332)" fill="#515151"/><path d="M15.75,18a9,9,0,1,0-9-9A9,9,0,0,0,15.75,18Zm-3.213,3.375A12.534,12.534,0,0,0,0,33.912,2.089,2.089,0,0,0,2.088,36H27.6a4.5,4.5,0,0,1-.6-2.25v-9q0-.221.021-.443a12.5,12.5,0,0,0-8.058-2.932Zm24.588-4.5a2.248,2.248,0,0,1,2.25,2.25V22.5h-4.5V19.125A2.248,2.248,0,0,1,37.125,16.875ZM31.5,19.125V22.5a2.248,2.248,0,0,0-2.25,2.25v9A2.248,2.248,0,0,0,31.5,36H42.75A2.248,2.248,0,0,0,45,33.75v-9a2.248,2.248,0,0,0-2.25-2.25V19.125a5.625,5.625,0,0,0-11.25,0Z" transform="translate(938 354)" fill="#f5f5f5"/></g></svg>