<svg xmlns="http://www.w3.org/2000/svg" width="43.586" height="46.007" viewBox="0 0 43.586 46.007"><g transform="translate(0.009 0.013)"><path d="M25.906,19.815a1.017,1.017,0,0,1-.3.522,1.277,1.277,0,0,1-.608.313,2.016,2.016,0,0,1-1.415-.057,1.612,1.612,0,0,1-.56-.475c-.038-.066-.085-.1-.095-.152a1.009,1.009,0,0,0-.095-.161,3.233,3.233,0,0,1-.247-.57c-.038-.171-.085-.342-.142-.541a1.386,1.386,0,0,1-.095-.427,3.542,3.542,0,0,1-.038-.437l-.247-1.377c-2.326-.532-4.7-1.044-7.016-1.6l-.826,1.13c-.076.114-.142.266-.218.38a2.781,2.781,0,0,1-.266.342c-.142.152-.256.294-.389.418a1.875,1.875,0,0,1-.446.408c-.057.009-.123.076-.161.095-.038.047-.095.057-.152.095a1.633,1.633,0,0,1-.712.19,2,2,0,0,1-1.291-.56,1.212,1.212,0,0,1-.408-.551.935.935,0,0,1-.047-.6c.057-.228.123-.4.19-.6a2.26,2.26,0,0,1,.228-.427c.085-.142.123-.19.133-.209L18.957,3.117l.247-.37c.123-.19.256-.313.389-.532a2.654,2.654,0,0,1,.418-.522,3.087,3.087,0,0,1,.5-.446,1.471,1.471,0,0,1,.513-.237,2.761,2.761,0,0,1,1.661.38,1.461,1.461,0,0,1,.361.427,3.9,3.9,0,0,1,.256.627,3.383,3.383,0,0,1,.142.655c.028.247.095.427.123.646l.057.446,2.326,14.268a1.592,1.592,0,0,0,.028.247,2.719,2.719,0,0,1,.019.484,5.467,5.467,0,0,1-.085.627Zm-4.528-8.259c-.209-1.073-.427-2.24-.684-3.456-.057-.332-.133-.7-.19-1.035-.171.285-.4.579-.6.854-.759.978-1.462,1.946-2.117,2.82l-.712,1.016L21.6,12.781l-.2-1.225Z" transform="translate(-0.461 0)" fill="#e3513b" stroke="#223637" stroke-linecap="round" stroke-linejoin="round" stroke-width="2"/><path d="M16.18,35.768c1.88,2.345,2.24,5.563-1.016,7.614a18.556,18.556,0,0,1-3.247,1.633,18.92,18.92,0,0,1-4.025,1.272,1.366,1.366,0,0,1-1.282-.807,1.144,1.144,0,0,1-.266-.408L1.161,31.136c-.684-1.842.93-2.525,2.611-3.123.665-.247,1.32-.522,2.013-.75a10.972,10.972,0,0,1,3.532-.7c.3,0,.617.019.911.047a2.3,2.3,0,0,1,.845.247,4.574,4.574,0,0,1,2.117,7.025,4.965,4.965,0,0,1,2.99,1.88Zm-2.468,4.6a3.048,3.048,0,0,0-1.9-3.674,4.727,4.727,0,0,0-3.009.313c-.921.37-1.576.5-1.206,1.405.361.816.589,1.737.883,2.516.161.437.3,1.111.778,1.329a3,3,0,0,0,2.079-.275c.987-.427,2.164-1.006,2.383-1.614ZM5.367,32.227c.228.617.427,1.234.655,1.823.465,1.329,2.383.313,3.37-.247a2.1,2.1,0,0,0,1.187-2.649c-.427-1.519-1.614-1.633-3.152-1.111-2.051.712-2.677.693-2.06,2.193Z" transform="translate(0 -1.295)" fill="#c8dc49" stroke="#223637" stroke-linecap="round" stroke-linejoin="round" stroke-width="2"/><path d="M37.133,43.291a8.884,8.884,0,0,1-6.721-3.247c-1.965-2.478-1.3-6.351-.475-9.095a9.53,9.53,0,0,1,5.943-6.313,6.993,6.993,0,0,1,7.1,2.2c.873,1.177,1.965,4.348-.437,4.433-1,.057-1.4-.75-1.747-1.471a3.45,3.45,0,0,0-5.838-.332c-1.566,2.079-2.639,5.487-1.642,7.841a3.968,3.968,0,0,0,4.832,2.2,12.01,12.01,0,0,1,2.326-.892,1.581,1.581,0,0,1,1.68,1.158c.513,2.136-2.9,3.456-5.022,3.5Z" transform="translate(-1.425 -1.185)" fill="#98c3fb" stroke="#223637" stroke-linecap="round" stroke-linejoin="round" stroke-width="2"/></g></svg>