<svg width="18" height="16" viewBox="0 0 18 16" fill="none" xmlns="http://www.w3.org/2000/svg">
<path d="M9.87916 1.49213C9.73425 1.19138 9.42804 1 9.09175 1C8.75546 1 8.45198 1.19138 8.30434 1.49213L6.54633 5.10931L2.62021 5.68893C2.29212 5.73814 2.01871 5.9678 1.91755 6.28222C1.81639 6.59664 1.89842 6.94387 2.13355 7.17626L4.98244 9.99509L4.30986 13.9786C4.25518 14.3067 4.39189 14.6403 4.66256 14.8344C4.93323 15.0285 5.29139 15.0531 5.58667 14.8973L9.09448 13.0244L12.6023 14.8973C12.8976 15.0531 13.2557 15.0312 13.5264 14.8344C13.7971 14.6375 13.9338 14.3067 13.8791 13.9786L13.2038 9.99509L16.0527 7.17626C16.2878 6.94387 16.3726 6.59664 16.2687 6.28222C16.1648 5.9678 15.8941 5.73814 15.566 5.68893L11.6372 5.10931L9.87916 1.49213Z" fill="#FFD53D" stroke="#FFA624" stroke-width="2"/>
</svg>
