<svg width="75" height="88" viewBox="0 0 75 88" fill="none" xmlns="http://www.w3.org/2000/svg">
<path d="M73.5 82.4C73.5 84.8 71.6 86.7 69.2 86.7H5.60005C3.20005 86.7 1.30005 84.8 1.30005 82.4V5.60005C1.30005 3.20005 3.20005 1.30005 5.60005 1.30005H48.9001L73.5 25.9V82.4Z" fill="white"/>
<path d="M69.1 88H5.6C2.5 88 0 85.5 0 82.4V5.6C0 2.5 2.5 0 5.6 0H49.4L74.7 25.3V82.4C74.7 85.5 72.2 88 69.1 88ZM48.4 2.5H5.6C3.9 2.5 2.5 3.9 2.5 5.6V82.4C2.5 84.1 3.9 85.5 5.6 85.5H69.2C70.9 85.5 72.3 84.1 72.3 82.4V26.3L48.4 2.5Z" fill="#3D3D3D"/>
<path d="M73.5001 25.8H53.2001C50.8001 25.8 48.9001 23.9 48.9001 21.5V1.30005L73.5001 25.8Z" fill="white"/>
<path d="M53.2001 27.1C50.1001 27.1 47.6001 24.6 47.6001 21.5V1.3C47.6001 0.8 47.9001 0.3 48.4001 0.1C48.9001 -0.1 49.4001 0 49.8001 0.4L74.4001 25C74.8001 25.4 74.9001 25.9 74.7001 26.4C74.5001 26.9 74.0001 27.2 73.5001 27.2L53.2001 27.1ZM50.1001 4.3V21.5C50.1001 23.2 51.5001 24.6 53.2001 24.6H70.4001L50.1001 4.3Z" fill="#3D3D3D"/>
<path d="M30.4999 29.1H10.3999V31.1H30.4999V29.1Z" fill="#CCCCCC"/>
<path d="M30.4999 23.4H10.3999V25.4H30.4999V23.4Z" fill="#CCCCCC"/>
<path d="M30.4999 17.6H10.3999V19.6H30.4999V17.6Z" fill="#CCCCCC"/>
<path d="M30.4999 11.9H10.3999V13.9H30.4999V11.9Z" fill="#CCCCCC"/>
<path d="M36.6 66.2H31.3V75.3H36.6V66.2Z" fill="#1AB9C5"/>
<path d="M45.3 57H40V75.2H45.3V57Z" fill="#1AB9C5"/>
<path d="M53.9001 61H48.6001V75.3H53.9001V61Z" fill="#1AB9C5"/>
<path d="M62.6 47.4H57.3V75.2H62.6V47.4Z" fill="#F34D7E"/>
</svg>
