<svg width="16" height="14" viewBox="0 0 16 14" fill="none" xmlns="http://www.w3.org/2000/svg">
<path d="M8.61071 1.42183C8.4865 1.16404 8.22404 1 7.93579 1C7.64754 1 7.38741 1.16404 7.26086 1.42183L5.754 4.52226L2.38875 5.01908C2.10753 5.06126 1.87318 5.25812 1.78647 5.52762C1.69977 5.79712 1.77007 6.09474 1.97161 6.29394L4.41352 8.71007L3.83702 12.1245C3.79016 12.4058 3.90733 12.6917 4.13934 12.858C4.37134 13.0244 4.67834 13.0455 4.93143 12.9119L7.93813 11.3067L10.9448 12.9119C11.1979 13.0455 11.5049 13.0268 11.7369 12.858C11.9689 12.6893 12.0861 12.4058 12.0392 12.1245L11.4604 8.71007L13.9023 6.29394C14.1038 6.09474 14.1765 5.79712 14.0874 5.52762C13.9984 5.25812 13.7664 5.06126 13.4852 5.01908L10.1176 4.52226L8.61071 1.42183Z" fill="#DFDFDF" stroke="#ACACAC" stroke-width="2"/>
</svg>
