<svg width="70" height="70" viewBox="0 0 70 70" fill="none" xmlns="http://www.w3.org/2000/svg">
<circle cx="35" cy="35" r="34.5" fill="#FFF3E2" stroke="#FFA624"/>
<path d="M44.345 25.2384C47.1844 27.5484 49 31.0703 49 35.0166C49 38.9628 47.1844 42.4891 44.345 44.7947C43.8944 45.1622 43.2337 45.0922 42.8662 44.6416C42.4987 44.1909 42.5688 43.5303 43.0194 43.1628C45.3906 41.2378 46.9 38.3066 46.9 35.0166C46.9 31.7266 45.3906 28.7953 43.0194 26.8659C42.5688 26.4984 42.5031 25.8378 42.8662 25.3872C43.2294 24.9366 43.8944 24.8709 44.345 25.2341V25.2384ZM41.6981 28.4978C43.5881 30.0378 44.8 32.3872 44.8 35.0166C44.8 37.6459 43.5881 39.9953 41.6981 41.5353C41.2475 41.9028 40.5869 41.8328 40.2194 41.3822C39.8519 40.9316 39.9219 40.2709 40.3725 39.9034C41.7944 38.7484 42.7 36.9897 42.7 35.0166C42.7 33.0434 41.7944 31.2847 40.3725 30.1253C39.9219 29.7578 39.8562 29.0972 40.2194 28.6466C40.5825 28.1959 41.2475 28.1303 41.6981 28.4934V28.4978ZM39.0512 31.7572C39.9919 32.5272 40.6 33.6997 40.6 35.0166C40.6 36.3334 39.9919 37.5059 39.0512 38.2759C38.6006 38.6434 37.94 38.5734 37.5725 38.1228C37.205 37.6722 37.275 37.0116 37.7256 36.6441C38.1981 36.2591 38.5 35.6728 38.5 35.0166C38.5 34.3603 38.1981 33.7741 37.7256 33.3847C37.275 33.0172 37.2094 32.3566 37.5725 31.9059C37.9356 31.4553 38.6006 31.3897 39.0512 31.7528V31.7572ZM34.1731 25.3391C34.6762 25.5666 35 26.0653 35 26.6166V43.4166C35 43.9678 34.6762 44.4666 34.1731 44.6941C33.67 44.9216 33.0794 44.8297 32.6681 44.4622L26.7663 39.2166H23.8C22.2556 39.2166 21 37.9609 21 36.4166V33.6166C21 32.0722 22.2556 30.8166 23.8 30.8166H26.7663L32.6681 25.5709C33.0794 25.2034 33.67 25.1159 34.1731 25.3391Z" fill="#FFA624"/>
</svg>
