<svg width="70" height="70" viewBox="0 0 70 70" fill="none" xmlns="http://www.w3.org/2000/svg">
<circle cx="35" cy="35" r="34.5" fill="white" stroke="#1AB9C5"/>
<path d="M31.8415 47.99C32.6026 48.0391 33.2996 47.5642 33.5322 46.8379C33.7649 46.1116 33.4737 45.3201 32.8257 44.9179C32.4742 44.7491 32.0897 44.6603 31.6998 44.6579C31.234 44.5891 30.7723 44.4954 30.3165 44.3771C29.4445 44.1167 28.6092 43.7462 27.8308 43.2746C25.2244 41.6405 23.5441 38.8702 23.2995 35.8036C23.0549 32.737 24.2748 29.7354 26.5892 27.7088C28.8031 25.7727 31.7722 24.9385 34.6704 25.4383C37.5687 25.938 40.0869 27.7185 41.5245 30.2843C42.9553 32.9073 43.1193 36.0377 41.9704 38.7958L41.5011 36.2633C41.409 35.669 41.0021 35.1713 40.438 34.963C39.8739 34.7547 39.2412 34.8685 38.785 35.2604C38.3288 35.6522 38.1209 36.2605 38.2418 36.8496L39.4118 43.3682C39.5071 43.8499 39.8091 44.2655 40.2379 44.5048C40.6667 44.7441 41.1789 44.7829 41.6389 44.6111C43.589 43.831 45.5313 43.0874 47.4775 42.3138C48.326 41.9837 48.746 41.0281 48.4156 40.1797C48.0853 39.3313 47.1298 38.9113 46.2814 39.2416L45.179 39.6877C47.5064 33.5894 44.9717 26.7092 39.2441 23.5785C33.8621 20.6759 27.19 21.8606 23.1362 26.4386C19.1945 31.0868 18.9426 37.8278 22.5265 42.7572C24.7518 45.752 28.1489 47.6555 31.8649 47.99C28.8162 47.7299 32.775 48.0602 31.8649 47.99H31.8415Z" fill="#1AB9C5"/>
</svg>
