<svg width="13" height="12" viewBox="0 0 13 12" fill="none" xmlns="http://www.w3.org/2000/svg">
<path d="M7.34226 1.35152C7.23875 1.1367 7.02003 1 6.77982 1C6.53962 1 6.32284 1.1367 6.21738 1.35152L4.96167 3.93522L2.15729 4.34923C1.92294 4.38439 1.72765 4.54843 1.6554 4.77302C1.58314 4.9976 1.64173 5.24562 1.80968 5.41162L3.8446 7.42506L3.36419 10.2704C3.32513 10.5048 3.42278 10.7431 3.61611 10.8817C3.80945 11.0204 4.06528 11.0379 4.2762 10.9266L6.78177 9.58888L9.28736 10.9266C9.49827 11.0379 9.7541 11.0223 9.94744 10.8817C10.1408 10.7411 10.2384 10.5048 10.1994 10.2704L9.71699 7.42506L11.7519 5.41162C11.9199 5.24562 11.9804 4.9976 11.9062 4.77302C11.832 4.54843 11.6387 4.38439 11.4043 4.34923L8.59797 3.93522L7.34226 1.35152Z" fill="#DFDFDF" stroke="#ACACAC" stroke-width="2"/>
</svg>
