<svg width="13" height="12" viewBox="0 0 13 12" fill="none" xmlns="http://www.w3.org/2000/svg">
<path d="M6.71726 1.35152C6.61375 1.1367 6.39503 1 6.15482 1C5.91462 1 5.69784 1.1367 5.59238 1.35152L4.33667 3.93522L1.53229 4.34923C1.29794 4.38439 1.10265 4.54843 1.0304 4.77302C0.958139 4.9976 1.01673 5.24562 1.18468 5.41162L3.2196 7.42506L2.73919 10.2704C2.70013 10.5048 2.79778 10.7431 2.99111 10.8817C3.18445 11.0204 3.44028 11.0379 3.6512 10.9266L6.15677 9.58888L8.66236 10.9266C8.87327 11.0379 9.1291 11.0223 9.32244 10.8817C9.51577 10.7411 9.61342 10.5048 9.57436 10.2704L9.09199 7.42506L11.1269 5.41162C11.2949 5.24562 11.3554 4.9976 11.2812 4.77302C11.207 4.54843 11.0137 4.38439 10.7793 4.34923L7.97297 3.93522L6.71726 1.35152Z" fill="#FFD53D" stroke="#FFA624" stroke-width="2"/>
</svg>
