<svg width="30" height="28" viewBox="0 0 30 28" fill="none" xmlns="http://www.w3.org/2000/svg">
<path d="M16.2697 1.91396C16.0005 1.35543 15.4319 1 14.8073 1C14.1828 1 13.6192 1.35543 13.345 1.91396L10.0801 8.63157L2.78875 9.70801C2.17944 9.79941 1.67168 10.2259 1.48381 10.8098C1.29595 11.3938 1.44827 12.0386 1.88494 12.4702L7.17575 17.7052L5.92667 25.1032C5.82512 25.7125 6.079 26.3319 6.58168 26.6924C7.08436 27.0529 7.74952 27.0986 8.29789 26.8092L14.8124 23.3311L21.3269 26.8092C21.8753 27.0986 22.5404 27.058 23.0431 26.6924C23.5458 26.3269 23.7997 25.7125 23.6981 25.1032L22.444 17.7052L27.7348 12.4702C28.1715 12.0386 28.3289 11.3938 28.1359 10.8098C27.943 10.2259 27.4403 9.79941 26.831 9.70801L19.5345 8.63157L16.2697 1.91396Z" fill="#DFDFDF" stroke="#ACACAC" stroke-width="2"/>
</svg>
