<svg width="30" height="28" viewBox="0 0 30 28" fill="none" xmlns="http://www.w3.org/2000/svg">
<path d="M16.6451 1.91396C16.376 1.35543 15.8074 1 15.1828 1C14.5583 1 13.9947 1.35543 13.7205 1.91396L10.4556 8.63157L3.16423 9.70801C2.55493 9.79941 2.04717 10.2259 1.8593 10.8098C1.67143 11.3938 1.82376 12.0386 2.26043 12.4702L7.55124 17.7052L6.30216 25.1032C6.20061 25.7125 6.45449 26.3319 6.95717 26.6924C7.45985 27.0529 8.12501 27.0986 8.67338 26.8092L15.1879 23.3311L21.7024 26.8092C22.2508 27.0986 22.9159 27.058 23.4186 26.6924C23.9213 26.3269 24.1752 25.7125 24.0736 25.1032L22.8195 17.7052L28.1103 12.4702C28.5469 12.0386 28.7043 11.3938 28.5114 10.8098C28.3185 10.2259 27.8158 9.79941 27.2065 9.70801L19.91 8.63157L16.6451 1.91396Z" fill="#FFD53D" stroke="#FFA624" stroke-width="2"/>
</svg>
