<svg width="11" height="10" viewBox="0 0 11 10" fill="none" xmlns="http://www.w3.org/2000/svg">
<path d="M6.07381 1.28122C5.991 1.10936 5.81602 1 5.62386 1C5.43169 1 5.25828 1.10936 5.17391 1.28122L4.16933 3.34817L1.92583 3.67939C1.73835 3.70751 1.58212 3.83874 1.52432 4.01841C1.46651 4.19808 1.51338 4.3965 1.64774 4.52929L3.27568 6.14005L2.89135 8.41636C2.8601 8.60384 2.93822 8.79444 3.09289 8.90537C3.24756 9.01629 3.45223 9.03035 3.62096 8.9413L5.62542 7.87111L7.62989 8.9413C7.79862 9.03035 8.00328 9.01785 8.15795 8.90537C8.31262 8.79288 8.39074 8.60384 8.35949 8.41636L7.9736 6.14005L9.60154 4.52929C9.7359 4.3965 9.78433 4.19808 9.72496 4.01841C9.6656 3.83874 9.51092 3.70751 9.32344 3.67939L7.07838 3.34817L6.07381 1.28122Z" fill="#DFDFDF" stroke="#ACACAC" stroke-width="1.6"/>
</svg>
