<svg width="11" height="10" viewBox="0 0 11 10" fill="none" xmlns="http://www.w3.org/2000/svg">
<path d="M5.57381 1.28122C5.491 1.10936 5.31602 1 5.12386 1C4.93169 1 4.75828 1.10936 4.67391 1.28122L3.66933 3.34817L1.42583 3.67939C1.23835 3.70751 1.08212 3.83874 1.02432 4.01841C0.966511 4.19808 1.01338 4.3965 1.14774 4.52929L2.77568 6.14005L2.39135 8.41636C2.3601 8.60384 2.43822 8.79444 2.59289 8.90537C2.74756 9.01629 2.95223 9.03035 3.12096 8.9413L5.12542 7.87111L7.12989 8.9413C7.29862 9.03035 7.50328 9.01785 7.65795 8.90537C7.81262 8.79288 7.89074 8.60384 7.85949 8.41636L7.4736 6.14005L9.10154 4.52929C9.2359 4.3965 9.28433 4.19808 9.22496 4.01841C9.1656 3.83874 9.01092 3.70751 8.82344 3.67939L6.57838 3.34817L5.57381 1.28122Z" fill="#FFD53D" stroke="#FFA624" stroke-width="1.6"/>
</svg>
