<svg width="473" height="144" viewBox="0 0 473 144" fill="none" xmlns="http://www.w3.org/2000/svg">
<path d="M69.36 38.52C69 37.44 68.52 36.6 67.8 35.88C67.2 35.28 66.24 34.8 65.28 34.2C64.2 33.48 62.76 33.12 61.32 33.24C59.88 33.48 58.56 34.08 57.36 34.92C55.8 35.88 54.24 37.2 53.16 38.64C51.96 40.2 50.88 41.76 49.68 43.2L49.44 43.68C45.6 48.72 42.48 53.4 38.76 58.8C38.52 59.04 37.8 60.12 37.2 61.2C36.36 60 35.64 58.92 35.4 58.56C31.8 53.16 28.56 48.6 24.72 43.56L24.36 43.08C23.28 41.4 22.08 40.08 20.88 38.52C19.8 37.08 18.36 35.76 16.92 34.68C15.6 33.84 14.4 33.12 12.72 33.12C11.4 33 10.08 33.24 8.88 34.08C7.92 34.56 7.08 35.16 6.36 35.76C5.64 36.48 5.16 37.32 4.92 38.4C4.8 39.12 4.8 39.96 5.04 40.8C5.4 41.88 5.76 42.96 6.36 43.92C6.84 45 7.32 45.84 8.04 46.8C8.76 47.76 9.36 48.6 9.84 49.32L11.16 51.48L26.76 73.56L29.4 77.64V110.4C29.4 111 29.4 111.84 29.64 112.56C29.76 113.4 30.24 114.12 30.48 115.08C30.96 115.8 31.44 116.52 32.16 117C32.88 117.72 33.96 118.08 35.04 118.2C37.2 118.68 39.36 118.44 41.04 117.6C41.88 117 42.6 116.28 43.08 115.44C43.2 115.08 43.32 114.96 43.44 114.72C43.44 114.48 43.56 114.24 43.68 114C44.04 113.16 44.16 112.44 44.4 111.72C44.52 110.76 44.52 110.04 44.76 109.2V77.28L47.52 73.8L62.88 51.6L64.44 49.56C64.92 48.72 65.52 47.88 66.12 46.92C66.84 46.08 67.44 45.12 67.92 44.04C68.4 43.08 68.76 42 69 41.04C69.48 40.08 69.48 39.36 69.36 38.52ZM80.5144 64.08C73.9144 67.32 68.7544 73.2 66.2344 82.68C61.4344 100.68 72.1144 118.08 91.1944 119.16C96.4744 119.64 102.354 118.68 107.154 116.52C110.874 114.84 114.354 111.84 116.514 108.36C121.194 100.68 123.474 91.32 120.834 82.56C119.514 77.64 116.634 71.88 113.034 68.28C104.034 59.64 91.1944 58.8 80.5144 64.08ZM84.1144 80.16C89.1544 75.48 99.8344 74.88 103.794 81.36C109.314 90.24 103.794 104.88 93.4744 104.28C89.0344 104.04 84.2344 102.24 82.6744 99.84C78.7144 94.2 79.4344 84.72 84.1144 80.16ZM180.917 89.76C181.157 81.48 181.397 70.08 179.597 64.92C177.797 59.28 167.837 59.64 166.277 65.28C164.957 69.48 165.677 81.84 165.677 89.4C165.677 98.16 164.717 102.48 161.117 103.56C145.517 108.12 146.957 91.44 146.477 80.52C146.237 76.8 146.477 72 145.997 68.28C145.157 61.32 140.477 59.04 135.677 61.56C131.357 63.84 132.077 70.8 131.957 75C131.597 80.4 131.597 85.8 131.957 91.32C132.317 99.72 133.517 111.24 141.317 115.92C148.997 120.72 161.117 121.32 170.117 117C180.437 112.2 180.437 100.2 180.917 89.76ZM258.217 34.44C252.337 36 253.297 41.28 253.177 46.32V67.8H246.577C230.017 67.56 220.417 78.24 220.897 93.6C221.497 111.24 232.177 119.16 249.337 119.16C269.137 119.16 267.817 120.84 267.817 94.92V58.08C267.817 54.72 267.937 50.88 267.817 42.84C267.817 37.2 264.217 32.76 258.217 34.44ZM237.337 101.04C233.857 96.24 233.857 87.48 238.777 83.64C243.337 80.16 247.657 81.12 253.177 82.08V104.28C253.177 104.28 249.937 105.12 246.457 104.88C242.137 104.64 239.017 103.32 237.337 101.04ZM292.615 72.84C292.615 68.88 292.375 63.24 291.175 61.32C289.135 58.32 281.935 58.44 279.775 61.08C276.775 65.16 277.735 74.4 277.615 78.84C277.495 86.4 277.735 98.76 277.855 106.2C278.095 113.4 280.135 117.6 285.055 117.84C291.895 118.2 292.375 110.88 292.615 106.08C292.975 96.24 292.615 81.72 292.615 72.84ZM288.055 48.6C294.415 46.56 295.375 39.96 289.855 36C284.215 31.92 277.495 35.76 278.815 42.6C279.535 47.16 283.135 49.92 288.055 48.6ZM340.599 34.44C334.719 36 335.679 41.28 335.559 46.32V67.8H328.959C312.399 67.56 302.799 78.24 303.279 93.6C303.879 111.24 314.559 119.16 331.719 119.16C351.519 119.16 350.199 120.84 350.199 94.92V58.08C350.199 54.72 350.319 50.88 350.199 42.84C350.199 37.2 346.599 32.76 340.599 34.44ZM319.719 101.04C316.239 96.24 316.239 87.48 321.159 83.64C325.719 80.16 330.039 81.12 335.559 82.08V104.28C335.559 104.28 332.319 105.12 328.839 104.88C324.519 104.64 321.399 103.32 319.719 101.04ZM404.998 72.84C404.998 68.88 404.758 63.24 403.558 61.32C401.518 58.32 394.318 58.44 392.158 61.08C389.158 65.16 390.118 74.4 389.998 78.84C389.878 86.4 390.118 98.76 390.238 106.2C390.478 113.4 392.518 117.6 397.438 117.84C404.278 118.2 404.758 110.88 404.998 106.08C405.358 96.24 404.998 81.72 404.998 72.84ZM400.438 48.6C406.798 46.56 407.758 39.96 402.238 36C396.598 31.92 389.878 35.76 391.198 42.6C391.918 47.16 395.518 49.92 400.438 48.6ZM466.782 65.4C464.382 59.64 455.382 61.32 450.702 61.2H449.502C449.502 56.52 449.622 49.08 448.542 45.36C447.342 40.92 441.822 37.44 437.022 41.28C433.422 44.04 433.542 52.68 433.782 56.64C433.902 58.08 433.902 59.64 434.022 61.2C429.342 61.08 423.342 61.08 420.462 61.8C416.382 62.88 413.742 68.88 417.342 73.08C419.622 75.84 428.502 75.96 432.342 75.96H434.142C434.142 84.6 434.022 93.6 433.902 100.32C433.782 104.52 433.422 112.2 436.062 116.28C437.742 118.8 442.302 120 447.222 117.96C450.462 116.76 450.222 108.36 450.222 103.44C450.462 96.48 450.102 85.44 449.742 75.84C453.702 75.72 461.382 75.24 464.142 74.04C466.902 72.96 467.982 68.4 466.782 65.4Z" fill="#FBDF07"/>
<path d="M69.36 38.52L73.3198 37.9543L73.2688 37.5972L73.1547 37.2551L69.36 38.52ZM67.8 35.88L64.9716 38.7084L64.9716 38.7084L67.8 35.88ZM65.28 34.2L63.0612 37.5282L63.1101 37.5608L63.16 37.592L65.28 34.2ZM61.32 33.24L60.9878 29.2538L60.8243 29.2674L60.6624 29.2944L61.32 33.24ZM57.36 34.92L59.4564 38.3266L59.557 38.2647L59.6539 38.1969L57.36 34.92ZM53.16 38.64L56.3305 41.0788L56.3454 41.0595L56.36 41.04L53.16 38.64ZM49.68 43.2L46.6071 40.6393L46.3099 40.9959L46.1023 41.4111L49.68 43.2ZM49.44 43.68L52.6217 46.1042L52.8496 45.8051L53.0177 45.4689L49.44 43.68ZM38.76 58.8L41.5884 61.6284L41.8468 61.3701L42.054 61.0692L38.76 58.8ZM37.2 61.2L33.9231 63.4939L37.5907 68.7333L40.6966 63.1426L37.2 61.2ZM35.4 58.56L38.7282 56.3412L38.7282 56.3412L35.4 58.56ZM24.72 43.56L21.52 45.96L21.5291 45.9721L21.5383 45.9842L24.72 43.56ZM24.36 43.08L20.9953 45.243L21.0734 45.3645L21.16 45.48L24.36 43.08ZM20.88 38.52L17.68 40.92L17.6946 40.9395L17.7095 40.9588L20.88 38.52ZM16.92 34.68L19.32 31.48L19.1971 31.3878L19.0675 31.3054L16.92 34.68ZM12.72 33.12L12.3579 37.1036L12.5386 37.12H12.72V33.12ZM8.88 34.08L10.6689 37.6577L10.9324 37.5259L11.1738 37.3569L8.88 34.08ZM6.36 35.76L3.79926 32.6871L3.65987 32.8033L3.53156 32.9316L6.36 35.76ZM4.92 38.4L1.01525 37.5323L0.992025 37.6368L0.974424 37.7424L4.92 38.4ZM5.04 40.8L1.1939 41.8989L1.21778 41.9825L1.24527 42.0649L5.04 40.8ZM6.36 43.92L10.0152 42.2954L9.90104 42.0385L9.752 41.8L6.36 43.92ZM8.04 46.8L11.24 44.4L11.24 44.4L8.04 46.8ZM9.84 49.32L13.2531 47.2342L13.212 47.1669L13.1682 47.1012L9.84 49.32ZM11.16 51.48L7.74687 53.5658L7.81629 53.6794L7.89311 53.7881L11.16 51.48ZM26.76 73.56L30.1183 71.387L30.074 71.3185L30.0269 71.2519L26.76 73.56ZM29.4 77.64H33.4V76.4587L32.7583 75.467L29.4 77.64ZM29.64 112.56L33.5998 111.994L33.5488 111.637L33.4347 111.295L29.64 112.56ZM30.48 115.08L26.5994 116.05L26.7675 116.722L27.1518 117.299L30.48 115.08ZM32.16 117L34.9884 114.172L34.7084 113.892L34.3788 113.672L32.16 117ZM35.04 118.2L35.9077 114.295L35.6966 114.248L35.4817 114.224L35.04 118.2ZM41.04 117.6L42.8289 121.178L43.1096 121.037L43.365 120.855L41.04 117.6ZM43.08 115.44L46.553 117.425L46.7495 117.081L46.8747 116.705L43.08 115.44ZM43.44 114.72L47.0177 116.509L47.44 115.664V114.72H43.44ZM43.68 114L47.2577 115.789L47.3103 115.684L47.3566 115.576L43.68 114ZM44.4 111.72L48.1947 112.985L48.32 112.609L48.3691 112.216L44.4 111.72ZM44.76 109.2L48.6061 110.299L48.76 109.76V109.2H44.76ZM44.76 77.28L41.626 74.7944L40.76 75.8863V77.28H44.76ZM47.52 73.8L50.654 76.2856L50.7351 76.1833L50.8094 76.0759L47.52 73.8ZM62.88 51.6L59.7026 49.1702L59.6448 49.2458L59.5906 49.3241L62.88 51.6ZM64.44 49.56L67.6174 51.9898L67.7801 51.7771L67.913 51.5446L64.44 49.56ZM66.12 46.92L63.083 44.3168L62.8873 44.5451L62.728 44.8L66.12 46.92ZM67.92 44.04L64.3423 42.2511L64.3017 42.3324L64.2648 42.4154L67.92 44.04ZM69 41.04L65.4223 39.2511L65.2259 39.6439L65.1194 40.0698L69 41.04ZM73.1547 37.2551C72.6408 35.7134 71.8736 34.2967 70.6284 33.0516L64.9716 38.7084C65.1665 38.9033 65.3592 39.1666 65.5653 39.7849L73.1547 37.2551ZM70.6284 33.0516C69.9906 32.4138 69.2776 31.9475 68.7845 31.6414C68.5236 31.4795 68.2544 31.3208 68.0321 31.1892C67.7958 31.0493 67.5941 30.9293 67.4 30.808L63.16 37.592C63.4459 37.7707 63.7242 37.9357 63.9567 38.0733C64.2031 38.2192 64.3914 38.3305 64.5655 38.4386C64.9424 38.6725 65.0094 38.7462 64.9716 38.7084L70.6284 33.0516ZM67.4988 30.8718C65.6086 29.6117 63.2553 29.0649 60.9878 29.2538L61.6522 37.2262C62.2647 37.1751 62.7914 37.3483 63.0612 37.5282L67.4988 30.8718ZM60.6624 29.2944C58.5323 29.6494 56.6628 30.5254 55.0662 31.6431L59.6539 38.1969C60.4572 37.6346 61.2277 37.3106 61.9776 37.1856L60.6624 29.2944ZM55.2636 31.5134C53.3764 32.6747 51.405 34.3133 49.96 36.24L56.36 41.04C57.075 40.0867 58.2236 39.0853 59.4564 38.3266L55.2636 31.5134ZM49.9895 36.2012C48.6067 37.9988 47.761 39.2546 46.6071 40.6393L52.7529 45.7607C53.999 44.2654 55.3133 42.4012 56.3305 41.0788L49.9895 36.2012ZM46.1023 41.4111L45.8623 41.8911L53.0177 45.4689L53.2577 44.9889L46.1023 41.4111ZM46.2583 41.2558C42.3429 46.3947 39.1447 51.1906 35.466 56.5308L42.054 61.0692C45.8153 55.6093 48.8571 51.0453 52.6217 46.1042L46.2583 41.2558ZM35.9316 55.9716C35.4683 56.4349 35.0079 57.1285 34.7692 57.4929C34.4343 58.004 34.0535 58.6272 33.7034 59.2574L40.6966 63.1426C40.9465 62.6928 41.2257 62.236 41.4608 61.8771C41.5786 61.6974 41.6715 61.5634 41.7326 61.4794C41.7633 61.4372 41.7745 61.4236 41.7682 61.4314C41.7645 61.436 41.7499 61.4541 41.7257 61.4819C41.7039 61.507 41.6566 61.5602 41.5884 61.6284L35.9316 55.9716ZM40.4769 58.9061C39.6643 57.7452 38.9651 56.6966 38.7282 56.3412L32.0718 60.7788C32.3149 61.1434 33.0557 62.2548 33.9231 63.4939L40.4769 58.9061ZM38.7282 56.3412C35.0847 50.8759 31.796 46.247 27.9017 41.1358L21.5383 45.9842C25.324 50.953 28.5153 55.4441 32.0718 60.7788L38.7282 56.3412ZM27.92 41.16L27.56 40.68L21.16 45.48L21.52 45.96L27.92 41.16ZM27.7247 40.917C26.5324 39.0622 24.9951 37.3091 24.0505 36.0812L17.7095 40.9588C19.1649 42.8509 20.0276 43.7378 20.9953 45.243L27.7247 40.917ZM24.08 36.12C22.705 34.2866 20.9575 32.7081 19.32 31.48L14.52 37.88C15.7625 38.8119 16.895 39.8734 17.68 40.92L24.08 36.12ZM19.0675 31.3054C17.7572 30.4715 15.676 29.12 12.72 29.12V37.12C13.124 37.12 13.4428 37.2084 14.7725 38.0546L19.0675 31.3054ZM13.0821 29.1364C11.0072 28.9478 8.70061 29.323 6.58616 30.8031L11.1738 37.3569C11.4594 37.157 11.7928 37.0522 12.3579 37.1036L13.0821 29.1364ZM7.09114 30.5023C5.77956 31.1581 4.68095 31.9524 3.79926 32.6871L8.92074 38.8329C9.47905 38.3676 10.0604 37.9619 10.6689 37.6577L7.09114 30.5023ZM3.53156 32.9316C2.28206 34.1811 1.42284 35.6981 1.01525 37.5323L8.82475 39.2677C8.89716 38.9419 8.99794 38.7789 9.18844 38.5884L3.53156 32.9316ZM0.974424 37.7424C0.775159 38.938 0.762708 40.3897 1.1939 41.8989L8.8861 39.7011C8.83729 39.5303 8.82484 39.302 8.86558 39.0576L0.974424 37.7424ZM1.24527 42.0649C1.57856 43.0648 2.07327 44.6084 2.96801 46.04L9.752 41.8C9.44673 41.3116 9.22144 40.6952 8.83473 39.5351L1.24527 42.0649ZM2.70475 45.5445C3.2962 46.8753 3.92447 47.9793 4.84001 49.2L11.24 44.4C10.7155 43.7007 10.3838 43.1247 10.0152 42.2954L2.70475 45.5445ZM4.84 49.2C5.53116 50.1215 6.08508 50.8987 6.5118 51.5388L13.1682 47.1012C12.6349 46.3013 11.9888 45.3984 11.24 44.4L4.84 49.2ZM6.42687 51.4058L7.74687 53.5658L14.5731 49.3942L13.2531 47.2342L6.42687 51.4058ZM7.89311 53.7881L23.4931 75.8681L30.0269 71.2519L14.4269 49.1719L7.89311 53.7881ZM23.4017 75.733L26.0417 79.813L32.7583 75.467L30.1183 71.387L23.4017 75.733ZM25.4 77.64V110.4H33.4V77.64H25.4ZM25.4 110.4C25.4 110.883 25.3655 112.386 25.8453 113.825L33.4347 111.295C33.4542 111.353 33.433 111.313 33.4173 111.116C33.4018 110.923 33.4 110.714 33.4 110.4H25.4ZM25.6802 113.126C25.8175 114.087 26.1491 114.888 26.3106 115.284C26.5136 115.782 26.5636 115.907 26.5994 116.05L34.3606 114.11C34.1564 113.293 33.8464 112.578 33.7194 112.266C33.5509 111.852 33.5825 111.873 33.5998 111.994L25.6802 113.126ZM27.1518 117.299C27.5497 117.896 28.4438 119.33 29.9412 120.328L34.3788 113.672C34.4475 113.718 34.4326 113.727 34.3258 113.597C34.2008 113.444 34.0676 113.25 33.8082 112.861L27.1518 117.299ZM29.3316 119.828C30.9542 121.451 33.0663 122.005 34.5983 122.176L35.4817 114.224C35.2196 114.195 35.0352 114.144 34.9311 114.103C34.8265 114.062 34.8784 114.062 34.9884 114.172L29.3316 119.828ZM34.1723 122.105C37.116 122.759 40.2292 122.478 42.8289 121.178L39.2511 114.022C38.4908 114.402 37.284 114.601 35.9077 114.295L34.1723 122.105ZM43.365 120.855C44.5361 120.018 45.7125 118.895 46.553 117.425L39.607 113.455C39.4875 113.665 39.2239 113.982 38.715 114.345L43.365 120.855ZM46.8747 116.705C46.8615 116.745 46.8397 116.803 46.8079 116.872C46.7757 116.943 46.7464 116.996 46.733 117.02C46.7284 117.028 46.7276 117.029 46.7378 117.012C46.7441 117.001 46.7477 116.995 46.7582 116.978C46.7668 116.963 46.7784 116.944 46.7912 116.922C46.8437 116.834 46.9273 116.69 47.0177 116.509L39.8623 112.931C39.8927 112.87 39.9164 112.831 39.9088 112.844C39.8987 112.861 39.8992 112.86 39.8722 112.905C39.8524 112.938 39.8216 112.99 39.787 113.05C39.6194 113.344 39.4421 113.705 39.2853 114.175L46.8747 116.705ZM47.44 114.72C47.44 115.255 47.3085 115.636 47.2603 115.764C47.2461 115.802 47.2341 115.831 47.2264 115.849C47.2187 115.867 47.2139 115.877 47.2137 115.878C47.2136 115.878 47.2164 115.872 47.2241 115.856C47.2324 115.84 47.2418 115.821 47.2577 115.789L40.1023 112.211C40.0984 112.219 39.44 113.352 39.44 114.72H47.44ZM47.3566 115.576C47.6374 114.921 47.8124 114.338 47.9369 113.894C48.0814 113.377 48.1158 113.222 48.1947 112.985L40.6053 110.455C40.4442 110.938 40.2986 111.503 40.2331 111.736C40.1476 112.042 40.0826 112.24 40.0034 112.424L47.3566 115.576ZM48.3691 112.216C48.5591 110.697 48.4773 110.75 48.6061 110.299L40.9139 108.101C40.5627 109.33 40.4809 110.823 40.4309 111.224L48.3691 112.216ZM48.76 109.2V77.28H40.76V109.2H48.76ZM47.894 79.7656L50.654 76.2856L44.386 71.3144L41.626 74.7944L47.894 79.7656ZM50.8094 76.0759L66.1694 53.8759L59.5906 49.3241L44.2306 71.5241L50.8094 76.0759ZM66.0574 54.0298L67.6174 51.9898L61.2626 47.1302L59.7026 49.1702L66.0574 54.0298ZM67.913 51.5446C68.3715 50.7421 68.7024 50.3353 69.512 49.04L62.728 44.8C62.3376 45.4247 61.4685 46.6978 60.967 47.5754L67.913 51.5446ZM69.157 49.5232C70.1461 48.3692 70.9485 47.0748 71.5752 45.6646L64.2648 42.4154C63.9316 43.1652 63.5339 43.7908 63.083 44.3168L69.157 49.5232ZM71.4977 45.8289C72.1418 44.5407 72.5907 43.1697 72.8806 42.0102L65.1194 40.0698C64.9293 40.8303 64.6582 41.6193 64.3423 42.2511L71.4977 45.8289ZM72.5777 42.8288C73.5369 40.9104 73.512 39.2998 73.3198 37.9543L65.4002 39.0857C65.439 39.3575 65.421 39.3691 65.4295 39.2933C65.4339 39.2531 65.4421 39.2173 65.4489 39.1947C65.455 39.1748 65.4522 39.1914 65.4223 39.2511L72.5777 42.8288ZM80.5144 64.08L82.2771 67.6707L82.2871 67.6657L80.5144 64.08ZM66.2344 82.68L70.0993 83.7106L70.1001 83.7076L66.2344 82.68ZM91.1944 119.16L91.5565 115.176L91.4886 115.17L91.4204 115.166L91.1944 119.16ZM107.154 116.52L108.796 120.168L108.801 120.165L107.154 116.52ZM116.514 108.36L119.913 110.469L119.922 110.455L119.93 110.441L116.514 108.36ZM120.834 82.56L116.971 83.5965L116.987 83.6556L117.005 83.7142L120.834 82.56ZM113.034 68.28L115.863 65.4516L115.834 65.4227L115.805 65.3944L113.034 68.28ZM84.1144 80.16L81.3926 77.2288L81.3573 77.2615L81.3229 77.2951L84.1144 80.16ZM103.794 81.36L100.381 83.4458L100.389 83.4588L100.397 83.4717L103.794 81.36ZM93.4744 104.28L93.7065 100.287L93.6984 100.286L93.6903 100.286L93.4744 104.28ZM82.6744 99.84L86.0282 97.66L85.9892 97.6L85.948 97.5415L82.6744 99.84ZM78.7517 60.4893C71.0303 64.2798 65.1614 71.1462 62.3686 81.6524L70.1001 83.7076C72.3473 75.2538 76.7984 70.3602 82.2771 67.6707L78.7517 60.4893ZM62.3694 81.6493C57.0102 101.747 69.0058 121.91 90.9683 123.154L91.4204 115.166C75.223 114.25 65.8586 99.6133 70.0993 83.7106L62.3694 81.6493ZM90.8322 123.144C96.7828 123.685 103.354 122.616 108.796 120.168L105.513 112.872C101.354 114.744 96.1659 115.595 91.5565 115.176L90.8322 123.144ZM108.801 120.165C113.223 118.169 117.322 114.644 119.913 110.469L113.116 106.251C111.387 109.036 108.526 111.512 105.508 112.875L108.801 120.165ZM119.93 110.441C125.013 102.1 127.724 91.5586 124.664 81.4058L117.005 83.7142C119.225 91.0814 117.376 99.2598 113.099 106.279L119.93 110.441ZM124.698 81.5235C123.248 76.1192 120.084 69.6724 115.863 65.4516L110.206 71.1084C113.185 74.0876 115.781 79.1608 116.971 83.5965L124.698 81.5235ZM115.805 65.3944C105.396 55.4025 90.678 54.5932 78.7417 60.4943L82.2871 67.6657C91.7108 63.0068 102.673 63.8775 110.264 71.1655L115.805 65.3944ZM86.8362 83.0912C88.47 81.5741 91.3359 80.516 94.2803 80.5742C97.1997 80.6319 99.3356 81.7347 100.381 83.4458L107.208 79.2742C104.293 74.5052 99.1091 72.6681 94.4384 72.5758C89.7928 72.484 84.7988 74.0659 81.3926 77.2288L86.8362 83.0912ZM100.397 83.4717C102.346 86.6071 102.464 91.085 100.889 94.8207C99.3191 98.5425 96.6175 100.456 93.7065 100.287L93.2422 108.273C100.651 108.704 105.87 103.597 108.26 97.9293C110.645 92.275 110.762 84.9929 107.192 79.2483L100.397 83.4717ZM93.6903 100.286C91.894 100.189 90.0139 99.7697 88.4799 99.1561C86.8073 98.487 86.1383 97.8295 86.0282 97.66L79.3206 102.02C80.7704 104.25 83.2814 105.693 85.5088 106.584C87.8749 107.53 90.6148 108.131 93.2585 108.274L93.6903 100.286ZM85.948 97.5415C84.6101 95.636 83.9259 92.8276 84.1434 89.8905C84.3623 86.9363 85.445 84.4483 86.9058 83.0249L81.3229 77.2951C78.1038 80.4317 76.4865 84.9637 76.1653 89.2995C75.8429 93.6524 76.7786 98.404 79.4007 102.139L85.948 97.5415ZM180.917 89.76L184.913 89.9437L184.914 89.9098L184.915 89.8759L180.917 89.76ZM179.597 64.92L175.786 66.1362L175.802 66.187L175.82 66.2375L179.597 64.92ZM166.277 65.28L170.093 66.4793L170.114 66.4132L170.132 66.3463L166.277 65.28ZM161.117 103.56L162.239 107.399L162.253 107.395L162.266 107.391L161.117 103.56ZM146.477 80.52L150.473 80.3443L150.471 80.3034L150.469 80.2625L146.477 80.52ZM145.997 68.28L142.026 68.7593L142.028 68.7756L142.03 68.7919L145.997 68.28ZM135.677 61.56L133.818 58.0184L133.81 58.0225L135.677 61.56ZM131.957 75L135.948 75.2661L135.953 75.1902L135.955 75.1142L131.957 75ZM131.957 91.32L135.953 91.1487L135.951 91.1042L135.948 91.0597L131.957 91.32ZM141.317 115.92L143.437 112.528L143.406 112.509L143.375 112.49L141.317 115.92ZM170.117 117L168.43 113.373L168.408 113.383L168.386 113.394L170.117 117ZM184.915 89.8759C185.035 85.7389 185.159 80.7119 185.02 76.0508C184.886 71.5392 184.5 66.8304 183.374 63.6025L175.82 66.2375C176.494 68.1696 176.888 71.7408 177.024 76.2892C177.155 80.6881 177.039 85.5011 176.919 89.6441L184.915 89.8759ZM183.408 63.7038C181.759 58.5374 176.636 56.7509 172.723 56.8719C168.82 56.9926 163.844 59.0718 162.422 64.2137L170.132 66.3463C170.27 65.8482 171.053 64.9274 172.971 64.8681C174.877 64.8091 175.635 65.6626 175.786 66.1362L183.408 63.7038ZM162.461 64.0807C161.977 65.6208 161.755 67.5907 161.634 69.505C161.508 71.5023 161.474 73.7789 161.482 76.0932C161.49 78.4135 161.539 80.8333 161.586 83.1144C161.633 85.4139 161.677 87.5594 161.677 89.4H169.677C169.677 87.4606 169.631 85.2261 169.584 82.9505C169.537 80.6567 169.489 78.3065 169.482 76.0668C169.474 73.8211 169.508 71.7477 169.618 70.01C169.733 68.1893 169.917 67.0392 170.093 66.4793L162.461 64.0807ZM161.677 89.4C161.677 93.7587 161.423 96.5133 160.914 98.2152C160.471 99.6994 160.074 99.6967 159.967 99.7287L162.266 107.391C165.76 106.343 167.643 103.641 168.58 100.505C169.451 97.5867 169.677 93.8013 169.677 89.4H161.677ZM159.995 99.7207C156.655 100.697 154.995 100.312 154.186 99.8837C153.378 99.4562 152.573 98.5388 151.923 96.5835C151.268 94.6124 150.937 92.0713 150.766 89.1357C150.584 86.0085 150.61 83.4529 150.473 80.3443L142.481 80.6957C142.584 83.0471 142.609 86.6715 142.78 89.6005C142.962 92.7212 143.336 96.1126 144.331 99.1065C145.331 102.116 147.121 105.196 150.445 106.955C153.769 108.713 157.779 108.703 162.239 107.399L159.995 99.7207ZM150.469 80.2625C150.357 78.5347 150.358 76.566 150.326 74.3437C150.297 72.2161 150.236 69.8796 149.964 67.7681L142.03 68.7919C142.237 70.4004 142.297 72.3239 142.327 74.4563C142.356 76.494 142.357 78.7853 142.485 80.7775L150.469 80.2625ZM149.968 67.8007C149.457 63.5631 147.662 59.9041 144.38 57.935C141.025 55.9224 137.131 56.2791 133.818 58.0184L137.536 65.1016C139.023 64.3209 139.868 64.5576 140.264 64.795C140.732 65.0758 141.697 66.0369 142.026 68.7593L149.968 67.8007ZM133.81 58.0225C129.905 60.0831 128.713 64.0666 128.284 66.978C127.865 69.8276 128.005 73.2737 127.959 74.8858L135.955 75.1142C136.029 72.5263 135.868 70.3924 136.199 68.142C136.521 65.9534 137.128 65.3169 137.544 65.0975L133.81 58.0225ZM127.966 74.7339C127.594 80.313 127.594 85.8889 127.965 91.5803L135.948 91.0597C135.6 85.7111 135.6 80.487 135.948 75.2661L127.966 74.7339ZM127.961 91.4913C128.143 95.7481 128.545 101.133 130.008 106.137C131.466 111.127 134.14 116.278 139.259 119.35L143.375 112.49C140.694 110.882 138.867 107.933 137.686 103.893C136.509 99.8667 136.131 95.2919 135.953 91.1487L127.961 91.4913ZM139.197 119.312C148.113 124.885 161.693 125.48 171.848 120.606L168.386 113.394C160.541 117.16 149.881 116.555 143.437 112.528L139.197 119.312ZM171.804 120.627C178.341 117.586 181.507 112.213 183.063 106.556C184.562 101.113 184.682 94.953 184.913 89.9437L176.921 89.5763C176.671 95.007 176.552 100.067 175.35 104.434C174.207 108.587 172.213 111.614 168.43 113.373L171.804 120.627ZM258.217 34.44L259.242 38.3062L259.269 38.2992L259.295 38.2919L258.217 34.44ZM253.177 46.32L249.178 46.2248L249.177 46.2724V46.32H253.177ZM253.177 67.8V71.8H257.177V67.8H253.177ZM246.577 67.8L246.519 71.7996L246.548 71.8H246.577V67.8ZM220.897 93.6L216.898 93.7249L216.899 93.736L220.897 93.6ZM267.817 42.84H263.817V42.8698L263.817 42.8997L267.817 42.84ZM237.337 101.04L234.098 103.388L234.107 103.4L234.116 103.413L237.337 101.04ZM238.777 83.64L236.35 80.4602L236.333 80.4734L236.315 80.4867L238.777 83.64ZM253.177 82.08H257.177V78.7156L253.862 78.1392L253.177 82.08ZM253.177 104.28L254.18 108.152L257.177 107.375V104.28H253.177ZM246.457 104.88L246.732 100.889L246.705 100.888L246.678 100.886L246.457 104.88ZM257.191 30.5737C255.135 31.1192 253.383 32.0759 252.038 33.5193C250.705 34.951 250.013 36.6036 249.645 38.1497C249.287 39.6544 249.208 41.1853 249.188 42.4958C249.178 43.1605 249.183 43.8346 249.186 44.4473C249.19 45.0781 249.191 45.6593 249.178 46.2248L257.175 46.4152C257.192 45.7207 257.19 45.0344 257.186 44.4056C257.183 43.7589 257.179 43.1814 257.187 42.6179C257.205 41.4722 257.276 40.6406 257.428 40.0003C257.57 39.4014 257.748 39.1265 257.892 38.9719C258.025 38.8291 258.358 38.5408 259.242 38.3062L257.191 30.5737ZM249.177 46.32V67.8H257.177V46.32H249.177ZM253.177 63.8H246.577V71.8H253.177V63.8ZM246.635 63.8004C237.463 63.6675 229.785 66.5746 224.471 72.0693C219.171 77.5496 216.632 85.1814 216.899 93.7249L224.895 93.4751C224.682 86.6586 226.702 81.2704 230.222 77.6307C233.728 74.0054 239.13 71.6925 246.519 71.7996L246.635 63.8004ZM216.899 93.736C217.226 103.364 220.352 110.939 226.306 116.034C232.176 121.058 240.204 123.16 249.337 123.16V115.16C241.309 115.16 235.417 113.302 231.507 109.956C227.681 106.681 225.167 101.476 224.894 93.464L216.899 93.736ZM249.337 123.16C254.066 123.16 258.041 123.271 260.948 123C263.899 122.726 267.058 121.978 269.185 119.182C271.077 116.695 271.524 113.317 271.708 109.855C271.901 106.226 271.817 101.269 271.817 94.92H263.817C263.817 101.531 263.897 106.084 263.719 109.43C263.532 112.943 263.072 114.005 262.818 114.338C262.8 114.362 262.577 114.814 260.207 115.035C257.792 115.259 254.508 115.16 249.337 115.16V123.16ZM271.817 94.92V58.08H263.817V94.92H271.817ZM271.817 58.08C271.817 54.841 271.936 50.846 271.816 42.7803L263.817 42.8997C263.937 50.914 263.817 54.599 263.817 58.08H271.817ZM271.817 42.84C271.817 39.2469 270.675 35.5759 268.056 33.0277C265.272 30.3196 261.353 29.4081 257.138 30.5881L259.295 38.2919C261.081 37.7919 261.962 38.2604 262.478 38.7623C263.158 39.4241 263.817 40.7931 263.817 42.84H271.817ZM240.575 98.6921C239.461 97.1551 238.762 94.7113 238.901 92.1999C239.039 89.6841 239.962 87.789 241.238 86.7933L236.315 80.4867C232.671 83.331 231.134 87.7359 230.913 91.7601C230.691 95.7887 231.732 100.125 234.098 103.388L240.575 98.6921ZM241.203 86.8198C244.15 84.5707 246.604 84.997 252.491 86.0208L253.862 78.1392C248.709 77.243 242.523 75.7493 236.35 80.4602L241.203 86.8198ZM249.177 82.08V104.28H257.177V82.08H249.177ZM253.177 104.28C252.173 100.408 252.173 100.408 252.174 100.408C252.174 100.408 252.175 100.408 252.175 100.407C252.176 100.407 252.176 100.407 252.177 100.407C252.178 100.407 252.18 100.406 252.18 100.406C252.182 100.406 252.183 100.405 252.184 100.405C252.184 100.405 252.182 100.406 252.177 100.407C252.166 100.409 252.145 100.415 252.112 100.422C252.047 100.438 251.94 100.462 251.796 100.492C251.507 100.553 251.077 100.635 250.549 100.711C249.473 100.867 248.095 100.983 246.732 100.889L246.181 108.871C248.298 109.017 250.28 108.833 251.694 108.629C252.411 108.525 253.009 108.412 253.436 108.323C253.65 108.278 253.823 108.238 253.949 108.209C254.012 108.194 254.063 108.181 254.102 108.172C254.121 108.167 254.138 108.163 254.151 108.16C254.157 108.158 254.163 108.156 254.168 108.155C254.17 108.155 254.173 108.154 254.175 108.153C254.176 108.153 254.177 108.153 254.178 108.153C254.178 108.153 254.179 108.152 254.179 108.152C254.18 108.152 254.18 108.152 253.177 104.28ZM246.678 100.886C242.923 100.678 241.226 99.5757 240.557 98.6672L234.116 103.413C236.807 107.064 241.35 108.602 246.235 108.874L246.678 100.886ZM291.175 61.32L294.567 59.2L294.526 59.1346L294.483 59.0708L291.175 61.32ZM279.775 61.08L276.679 58.547L276.614 58.6271L276.553 58.7104L279.775 61.08ZM277.615 78.84L273.617 78.7319L273.616 78.7542L273.616 78.7765L277.615 78.84ZM277.855 106.2L273.856 106.265L273.856 106.299L273.858 106.333L277.855 106.2ZM285.055 117.84L285.266 113.846L285.258 113.845L285.25 113.845L285.055 117.84ZM292.615 106.08L296.61 106.28L296.612 106.253L296.613 106.226L292.615 106.08ZM288.055 48.6L289.092 52.4634L289.185 52.4383L289.277 52.4089L288.055 48.6ZM289.855 36L287.511 39.2409L287.517 39.2455L287.524 39.2501L289.855 36ZM278.815 42.6L282.766 41.9761L282.756 41.9089L282.743 41.8421L278.815 42.6ZM296.615 72.84C296.615 70.8007 296.554 68.2551 296.326 65.9253C296.212 64.7625 296.05 63.5803 295.811 62.5054C295.59 61.5099 295.232 60.2641 294.567 59.2L287.783 63.44C287.718 63.3359 287.841 63.5151 288.002 64.2408C288.145 64.8872 288.268 65.7225 288.364 66.7047C288.556 68.6649 288.615 70.9193 288.615 72.84H296.615ZM294.483 59.0708C293.356 57.4139 291.711 56.4453 290.229 55.8954C288.718 55.335 287.084 55.095 285.546 55.0851C284.005 55.0751 282.397 55.2952 280.92 55.7857C279.492 56.2599 277.867 57.0955 276.679 58.547L282.871 63.6129C282.764 63.7445 282.848 63.575 283.442 63.378C283.986 63.1973 284.711 63.0799 285.495 63.0849C286.282 63.09 286.965 63.2175 287.446 63.3959C287.955 63.5847 287.974 63.7261 287.868 63.5692L294.483 59.0708ZM276.553 58.7104C275.343 60.3552 274.679 62.2986 274.283 64.0883C273.88 65.9105 273.7 67.8398 273.619 69.6474C273.539 71.4645 273.556 73.2658 273.582 74.8332C273.61 76.4649 273.644 77.7371 273.617 78.7319L281.614 78.9481C281.647 77.7228 281.606 76.1751 281.581 74.6981C281.555 73.1567 281.542 71.5605 281.611 70.0026C281.681 68.4352 281.83 67.012 282.095 65.8155C282.366 64.5864 282.707 63.8447 282.998 63.4496L276.553 58.7104ZM273.616 78.7765C273.495 86.4191 273.737 98.8694 273.856 106.265L281.855 106.135C281.734 98.6506 281.496 86.3809 281.615 78.9035L273.616 78.7765ZM273.858 106.333C273.985 110.16 274.59 113.807 276.245 116.645C278.078 119.788 281.042 121.649 284.86 121.835L285.25 113.845C284.149 113.791 283.632 113.432 283.155 112.615C282.501 111.493 281.966 109.44 281.853 106.067L273.858 106.333ZM284.845 121.834C287.31 121.964 289.54 121.402 291.389 120.101C293.19 118.835 294.299 117.102 294.996 115.448C296.321 112.304 296.497 108.549 296.61 106.28L288.62 105.88C288.494 108.411 288.309 110.716 287.624 112.342C287.316 113.073 287.008 113.402 286.788 113.557C286.616 113.678 286.22 113.896 285.266 113.846L284.845 121.834ZM296.613 106.226C296.976 96.2971 296.615 81.5338 296.615 72.84H288.615C288.615 81.9062 288.975 96.1829 288.618 105.934L296.613 106.226ZM289.277 52.4089C293.624 51.0144 296.767 47.7832 297.37 43.5891C297.969 39.4187 295.898 35.4122 292.187 32.7498L287.524 39.2501C289.333 40.5478 289.542 41.8213 289.451 42.4508C289.364 43.0568 288.846 44.1456 286.834 44.7911L289.277 52.4089ZM292.2 32.7591C288.244 29.8975 283.441 29.5564 279.698 31.7567C275.885 33.998 273.937 38.4312 274.888 43.3579L282.743 41.8421C282.374 39.9288 283.125 39.022 283.752 38.6533C284.449 38.2436 285.827 38.0225 287.511 39.2409L292.2 32.7591ZM274.864 43.2239C275.364 46.3901 276.933 49.2859 279.606 51.1093C282.317 52.9586 285.684 53.3777 289.092 52.4634L287.019 44.7366C285.507 45.1423 284.614 44.8414 284.115 44.5007C283.577 44.1341 282.986 43.3699 282.766 41.9761L274.864 43.2239ZM340.599 34.44L341.625 38.3062L341.652 38.2992L341.678 38.2919L340.599 34.44ZM335.559 46.32L331.561 46.2248L331.559 46.2724V46.32H335.559ZM335.559 67.8V71.8H339.559V67.8H335.559ZM328.959 67.8L328.901 71.7996L328.93 71.8H328.959V67.8ZM303.279 93.6L299.281 93.7249L299.282 93.736L303.279 93.6ZM350.199 42.84H346.199V42.8698L346.2 42.8997L350.199 42.84ZM319.719 101.04L316.481 103.388L316.49 103.4L316.499 103.413L319.719 101.04ZM321.159 83.64L318.733 80.4602L318.715 80.4734L318.698 80.4867L321.159 83.64ZM335.559 82.08H339.559V78.7156L336.245 78.1392L335.559 82.08ZM335.559 104.28L336.563 108.152L339.559 107.375V104.28H335.559ZM328.839 104.88L329.115 100.889L329.088 100.888L329.061 100.886L328.839 104.88ZM339.574 30.5737C337.518 31.1192 335.766 32.0759 334.421 33.5193C333.088 34.951 332.395 36.6036 332.028 38.1497C331.67 39.6544 331.591 41.1853 331.571 42.4958C331.561 43.1605 331.566 43.8346 331.569 44.4473C331.573 45.0781 331.574 45.6593 331.561 46.2248L339.558 46.4152C339.575 45.7207 339.572 45.0344 339.569 44.4056C339.566 43.7589 339.562 43.1814 339.57 42.6179C339.588 41.4722 339.659 40.6406 339.811 40.0003C339.953 39.4014 340.131 39.1265 340.275 38.9719C340.408 38.8291 340.741 38.5408 341.625 38.3062L339.574 30.5737ZM331.559 46.32V67.8H339.559V46.32H331.559ZM335.559 63.8H328.959V71.8H335.559V63.8ZM329.017 63.8004C319.846 63.6675 312.168 66.5746 306.854 72.0693C301.554 77.5496 299.014 85.1814 299.281 93.7249L307.277 93.4751C307.064 86.6586 309.085 81.2704 312.605 77.6307C316.111 74.0054 321.513 71.6925 328.901 71.7996L329.017 63.8004ZM299.282 93.736C299.609 103.364 302.735 110.939 308.689 116.034C314.559 121.058 322.587 123.16 331.719 123.16V115.16C323.692 115.16 317.8 113.302 313.89 109.956C310.064 106.681 307.55 101.476 307.277 93.464L299.282 93.736ZM331.719 123.16C336.448 123.16 340.424 123.271 343.331 123C346.282 122.726 349.441 121.978 351.568 119.182C353.459 116.695 353.906 113.317 354.091 109.855C354.284 106.226 354.199 101.269 354.199 94.92H346.199C346.199 101.531 346.28 106.084 346.102 109.43C345.915 112.943 345.454 114.005 345.201 114.338C345.183 114.362 344.96 114.814 342.59 115.035C340.175 115.259 336.89 115.16 331.719 115.16V123.16ZM354.199 94.92V58.08H346.199V94.92H354.199ZM354.199 58.08C354.199 54.841 354.319 50.846 354.199 42.7803L346.2 42.8997C346.319 50.914 346.199 54.599 346.199 58.08H354.199ZM354.199 42.84C354.199 39.2469 353.058 35.5759 350.438 33.0277C347.654 30.3196 343.735 29.4081 339.521 30.5881L341.678 38.2919C343.463 37.7919 344.344 38.2604 344.86 38.7623C345.541 39.4241 346.199 40.7931 346.199 42.84H354.199ZM322.958 98.6921C321.843 97.1551 321.145 94.7113 321.283 92.1999C321.422 89.6841 322.345 87.789 323.62 86.7933L318.698 80.4867C315.054 83.331 313.517 87.7359 313.295 91.7601C313.074 95.7887 314.115 100.125 316.481 103.388L322.958 98.6921ZM323.586 86.8198C326.533 84.5707 328.987 84.997 334.874 86.0208L336.245 78.1392C331.092 77.243 324.906 75.7493 318.733 80.4602L323.586 86.8198ZM331.559 82.08V104.28H339.559V82.08H331.559ZM335.559 104.28C334.556 100.408 334.556 100.408 334.557 100.408C334.557 100.408 334.558 100.408 334.558 100.407C334.559 100.407 334.559 100.407 334.56 100.407C334.561 100.407 334.562 100.406 334.563 100.406C334.565 100.406 334.566 100.405 334.566 100.405C334.567 100.405 334.565 100.406 334.56 100.407C334.549 100.409 334.528 100.415 334.495 100.422C334.43 100.438 334.323 100.462 334.179 100.492C333.89 100.553 333.46 100.635 332.932 100.711C331.856 100.867 330.478 100.983 329.115 100.889L328.564 108.871C330.681 109.017 332.663 108.833 334.077 108.629C334.794 108.525 335.391 108.412 335.819 108.323C336.033 108.278 336.206 108.238 336.332 108.209C336.395 108.194 336.446 108.181 336.485 108.172C336.504 108.167 336.52 108.163 336.534 108.16C336.54 108.158 336.546 108.156 336.551 108.155C336.553 108.155 336.556 108.154 336.558 108.153C336.559 108.153 336.56 108.153 336.561 108.153C336.561 108.153 336.562 108.152 336.562 108.152C336.563 108.152 336.563 108.152 335.559 104.28ZM329.061 100.886C325.306 100.678 323.609 99.5757 322.94 98.6672L316.499 103.413C319.19 107.064 323.733 108.602 328.617 108.874L329.061 100.886ZM403.558 61.32L406.95 59.2L406.909 59.1346L406.866 59.0708L403.558 61.32ZM392.158 61.08L389.062 58.547L388.997 58.6271L388.936 58.7104L392.158 61.08ZM389.998 78.84L386 78.7319L385.999 78.7542L385.999 78.7765L389.998 78.84ZM390.238 106.2L386.239 106.265L386.239 106.299L386.24 106.333L390.238 106.2ZM397.438 117.84L397.648 113.846L397.641 113.845L397.633 113.845L397.438 117.84ZM404.998 106.08L408.993 106.28L408.994 106.253L408.995 106.226L404.998 106.08ZM400.438 48.6L401.475 52.4634L401.568 52.4383L401.66 52.4089L400.438 48.6ZM402.238 36L399.894 39.2409L399.9 39.2455L399.906 39.2501L402.238 36ZM391.198 42.6L395.149 41.9761L395.139 41.9089L395.126 41.8421L391.198 42.6ZM408.998 72.84C408.998 70.8007 408.937 68.2551 408.709 65.9253C408.595 64.7625 408.433 63.5803 408.194 62.5054C407.973 61.5099 407.615 60.2641 406.95 59.2L400.166 63.44C400.101 63.3359 400.223 63.5151 400.385 64.2408C400.528 64.8872 400.651 65.7225 400.747 66.7047C400.939 68.6649 400.998 70.9193 400.998 72.84H408.998ZM406.866 59.0708C405.739 57.4139 404.093 56.4453 402.611 55.8954C401.101 55.335 399.467 55.095 397.929 55.0851C396.387 55.0751 394.78 55.2952 393.303 55.7857C391.875 56.2599 390.25 57.0955 389.062 58.547L395.254 63.6129C395.146 63.7445 395.231 63.575 395.824 63.378C396.368 63.1973 397.094 63.0799 397.877 63.0849C398.664 63.09 399.348 63.2175 399.829 63.3959C400.338 63.5847 400.357 63.7261 400.25 63.5692L406.866 59.0708ZM388.936 58.7104C387.726 60.3552 387.062 62.2986 386.666 64.0883C386.263 65.9105 386.082 67.8398 386.002 69.6474C385.921 71.4645 385.938 73.2658 385.965 74.8332C385.992 76.4649 386.026 77.7371 386 78.7319L393.997 78.9481C394.03 77.7228 393.989 76.1751 393.964 74.6981C393.938 73.1567 393.925 71.5605 393.994 70.0026C394.064 68.4352 394.213 67.012 394.478 65.8155C394.749 64.5864 395.09 63.8447 395.381 63.4496L388.936 58.7104ZM385.999 78.7765C385.877 86.4191 386.119 98.8694 386.239 106.265L394.238 106.135C394.117 98.6506 393.879 86.3809 393.998 78.9035L385.999 78.7765ZM386.24 106.333C386.368 110.16 386.972 113.807 388.628 116.645C390.461 119.788 393.424 121.649 397.243 121.835L397.633 113.845C396.532 113.791 396.015 113.432 395.538 112.615C394.884 111.493 394.348 109.44 394.236 106.067L386.24 106.333ZM397.228 121.834C399.693 121.964 401.922 121.402 403.772 120.101C405.573 118.835 406.682 117.102 407.379 115.448C408.704 112.304 408.88 108.549 408.993 106.28L401.003 105.88C400.877 108.411 400.692 110.716 400.007 112.342C399.699 113.073 399.391 113.402 399.17 113.557C398.999 113.678 398.603 113.896 397.648 113.846L397.228 121.834ZM408.995 106.226C409.359 96.2971 408.998 81.5338 408.998 72.84H400.998C400.998 81.9062 401.358 96.1829 401.001 105.934L408.995 106.226ZM401.66 52.4089C406.007 51.0144 409.15 47.7832 409.752 43.5891C410.352 39.4187 408.281 35.4122 404.57 32.7498L399.906 39.2501C401.715 40.5478 401.924 41.8213 401.834 42.4508C401.747 43.0568 401.229 44.1456 399.216 44.7911L401.66 52.4089ZM404.583 32.7591C400.627 29.8975 395.824 29.5564 392.081 31.7567C388.268 33.998 386.32 38.4312 387.271 43.3579L395.126 41.8421C394.756 39.9288 395.508 39.022 396.135 38.6533C396.832 38.2436 398.209 38.0225 399.894 39.2409L404.583 32.7591ZM387.247 43.2239C387.747 46.3901 389.316 49.2859 391.989 51.1093C394.699 52.9586 398.067 53.3777 401.475 52.4634L399.402 44.7366C397.889 45.1423 396.997 44.8414 396.497 44.5007C395.96 44.1341 395.369 43.3699 395.149 41.9761L387.247 43.2239ZM466.782 65.4L470.496 63.9144L470.485 63.8879L470.474 63.8615L466.782 65.4ZM450.702 61.2L450.805 57.2013L450.753 57.2H450.702V61.2ZM449.502 61.2H445.502V65.2H449.502V61.2ZM448.542 45.36L444.681 46.4036L444.69 46.4395L444.701 46.4752L448.542 45.36ZM437.022 41.28L439.456 44.4544L439.489 44.4293L439.521 44.4035L437.022 41.28ZM433.782 56.64L429.79 56.882L429.792 56.9271L429.796 56.9722L433.782 56.64ZM434.022 61.2L433.92 65.1987L438.35 65.3123L438.01 60.8932L434.022 61.2ZM420.462 61.8L419.492 57.9194L419.465 57.9261L419.439 57.9332L420.462 61.8ZM417.342 73.08L420.426 70.5325L420.403 70.5044L420.379 70.4768L417.342 73.08ZM434.142 75.96H438.142V71.96H434.142V75.96ZM433.902 100.32L437.901 100.434L437.901 100.413L437.902 100.391L433.902 100.32ZM436.062 116.28L432.704 118.453L432.719 118.476L432.734 118.499L436.062 116.28ZM447.222 117.96L445.833 114.209L445.761 114.236L445.69 114.265L447.222 117.96ZM450.222 103.44L446.225 103.302L446.222 103.371V103.44H450.222ZM449.742 75.84L449.621 71.8418L445.594 71.9639L445.745 75.9899L449.742 75.84ZM464.142 74.04L462.685 70.315L462.615 70.3421L462.547 70.3717L464.142 74.04ZM470.474 63.8615C468.384 58.8454 463.499 57.5569 459.997 57.205C458.153 57.0197 456.294 57.0473 454.72 57.099C453.021 57.1549 451.819 57.2273 450.805 57.2013L450.6 65.1987C451.926 65.2327 453.603 65.1401 454.983 65.0947C456.487 65.0452 457.907 65.0353 459.197 65.165C461.965 65.443 462.78 66.1946 463.09 66.9385L470.474 63.8615ZM450.702 57.2H449.502V65.2H450.702V57.2ZM453.502 61.2C453.502 58.9161 453.533 55.7795 453.425 52.7758C453.32 49.8674 453.076 46.6298 452.384 44.2448L444.701 46.4752C445.088 47.8102 445.325 50.1526 445.43 53.0642C445.531 55.8804 445.502 58.8039 445.502 61.2H453.502ZM452.404 44.3164C451.491 40.9403 448.994 37.9959 445.754 36.5587C442.316 35.0333 438.138 35.2649 434.523 38.1565L439.521 44.4035C440.706 43.4551 441.688 43.5067 442.51 43.8713C443.531 44.3241 444.393 45.3397 444.681 46.4036L452.404 44.3164ZM434.588 38.1056C432.896 39.4033 431.876 41.1954 431.237 42.8345C430.587 44.5003 430.215 46.3074 429.996 47.9943C429.557 51.3663 429.664 54.8099 429.79 56.882L437.775 56.398C437.66 54.5101 437.587 51.6537 437.929 49.0257C438.1 47.7126 438.357 46.5947 438.69 45.7405C439.034 44.8596 439.349 44.5367 439.456 44.4544L434.588 38.1056ZM429.796 56.9722C429.848 57.5901 429.875 58.2523 429.905 59.0317C429.935 59.7817 429.967 60.6385 430.034 61.5068L438.01 60.8932C437.957 60.2015 437.93 59.4983 437.899 58.7183C437.87 57.9677 437.837 57.1299 437.768 56.3078L429.796 56.9722ZM434.125 57.2013C431.751 57.1405 428.997 57.1086 426.445 57.1869C423.987 57.2623 421.387 57.4456 419.492 57.9194L421.432 65.6806C422.417 65.4344 424.257 65.2577 426.69 65.1831C429.027 65.1114 431.613 65.1395 433.92 65.1987L434.125 57.2013ZM419.439 57.9332C415.863 58.8796 413.292 61.8121 412.227 65.0051C411.119 68.3295 411.481 72.388 414.305 75.6832L420.379 70.4768C419.604 69.572 419.485 68.5305 419.817 67.5349C420.193 66.4079 420.981 65.8004 421.486 65.6668L419.439 57.9332ZM414.258 75.6275C415.554 77.1957 417.41 78.0175 418.857 78.4938C420.412 79.0056 422.137 79.3201 423.759 79.5238C427.011 79.9324 430.408 79.96 432.342 79.96V71.96C430.437 71.96 427.473 71.9275 424.756 71.5862C423.393 71.4149 422.23 71.1819 421.359 70.895C420.379 70.5725 420.271 70.3443 420.426 70.5325L414.258 75.6275ZM432.342 79.96H434.142V71.96H432.342V79.96ZM430.142 75.96C430.142 84.5673 430.023 93.5414 429.903 100.249L437.902 100.391C438.022 93.6586 438.142 84.6327 438.142 75.96H430.142ZM429.904 100.206C429.846 102.235 429.714 105.44 429.959 108.649C430.194 111.74 430.813 115.531 432.704 118.453L439.42 114.107C438.671 112.949 438.15 110.86 437.936 108.041C437.73 105.34 437.839 102.605 437.901 100.434L429.904 100.206ZM432.734 118.499C435.878 123.215 442.843 124.106 448.754 121.655L445.69 114.265C443.883 115.014 442.294 115.105 441.148 114.895C439.941 114.674 439.476 114.189 439.39 114.061L432.734 118.499ZM448.611 121.711C450.933 120.851 452.13 118.894 452.747 117.423C453.388 115.893 453.718 114.156 453.909 112.573C454.29 109.406 454.222 105.765 454.222 103.44H446.222C446.222 106.035 446.275 109.054 445.966 111.617C445.811 112.899 445.594 113.794 445.369 114.33C445.119 114.926 445.131 114.469 445.833 114.209L448.611 121.711ZM454.22 103.578C454.466 96.4444 454.098 85.2478 453.739 75.6901L445.745 75.9899C446.107 85.6322 446.459 96.5156 446.225 103.302L454.22 103.578ZM449.863 79.8382C451.908 79.7762 454.919 79.6216 457.803 79.3238C460.477 79.0477 463.702 78.5933 465.737 77.7083L462.547 70.3717C461.823 70.6867 459.827 71.0723 456.981 71.3662C454.345 71.6384 451.536 71.7838 449.621 71.8418L449.863 79.8382ZM465.6 77.765C468.608 76.5877 470.154 73.8071 470.797 71.525C471.462 69.1658 471.473 66.3577 470.496 63.9144L463.068 66.8856C463.291 67.4423 463.362 68.4142 463.097 69.355C462.81 70.3729 462.436 70.4123 462.685 70.315L465.6 77.765Z" fill="white"/>
</svg>
